<svg width="32" height="32" viewBox="0 0 32 32" fill="none" xmlns="http://www.w3.org/2000/svg">
<g clip-path="url(#clip0_3274_7774)">
<path d="M0.354613 15.1043L14.1542 1.33429L15.4914 0L25.8793 10.3657L30.6295 15.1043C30.8668 15.3423 31 15.6643 31 16C31 16.3357 30.8668 16.6577 30.6295 16.8957L21.1392 26.3657L15.4914 32L5.1048 21.6343L4.94302 21.4743L0.354613 16.9029C0.235707 16.7851 0.141333 16.645 0.0769329 16.4906C0.0125324 16.3363 -0.020623 16.1708 -0.020623 16.0036C-0.020623 15.8364 0.0125324 15.6709 0.0769329 15.5165C0.141333 15.3622 0.235707 15.2221 0.354613 15.1043V15.1043ZM15.4914 20.7314L20.233 16L15.4914 11.2686L10.7512 16L15.4914 20.7314Z" fill="#2684FF"/>
<path d="M15.4913 11.2685C16.9826 9.78077 17.8232 7.76467 17.8296 5.66052C17.8361 3.55638 17.0078 1.5352 15.5257 0.0384521L25.9008 10.387L20.2544 16.0213L15.4913 11.2685Z" fill="url(#paint0_linear_3274_7774)"/>
<path d="M10.7387 15.9873L15.4917 20.7316C13.9948 22.2257 13.1539 24.2518 13.1539 26.3645C13.1539 28.4771 13.9948 30.5032 15.4917 31.9973L5.08798 21.6216L10.7387 15.9873Z" fill="url(#paint1_linear_3274_7774)"/>
</g>
<defs>
<linearGradient id="paint0_linear_3274_7774" x1="16.3403" y1="6.48131" x2="22.9474" y2="13.1012" gradientUnits="userSpaceOnUse">
<stop offset="0.18" stop-color="#0052CC"/>
<stop offset="1" stop-color="#2684FF"/>
</linearGradient>
<linearGradient id="paint1_linear_3274_7774" x1="-1177.29" y1="1389.17" x2="-1852.54" y2="1827.86" gradientUnits="userSpaceOnUse">
<stop offset="0.18" stop-color="#0052CC"/>
<stop offset="1" stop-color="#2684FF"/>
</linearGradient>
<clipPath id="clip0_3274_7774">
<rect width="32" height="32" fill="white"/>
</clipPath>
</defs>
</svg>
