<svg width="675" height="319" viewBox="0 0 675 319" fill="none" xmlns="http://www.w3.org/2000/svg">
<path d="M20 0.5H655C665.77 0.5 674.5 9.23045 674.5 20V318.5H0.5V20C0.5 9.23045 9.23045 0.5 20 0.5Z" fill="white" stroke="#D9D9D9"/>
<path d="M58.2912 42V28.9091H66.8054V30.897H60.6626V34.451H66.3643V36.4389H60.6626V40.0121H66.8565V42H58.2912ZM69.1225 42V32.1818H71.3342V33.8501H71.4492C71.6538 33.2876 71.9925 32.8487 72.4656 32.5334C72.9386 32.2138 73.5032 32.054 74.1594 32.054C74.8242 32.054 75.3846 32.2159 75.8406 32.5398C76.3008 32.8594 76.6246 33.2962 76.8121 33.8501H76.9144C77.1317 33.3047 77.4982 32.87 78.0139 32.5462C78.5337 32.218 79.1495 32.054 79.8612 32.054C80.7646 32.054 81.5018 32.3395 82.0728 32.9105C82.6438 33.4815 82.9293 34.3146 82.9293 35.4098V42H80.609V35.7678C80.609 35.1584 80.4471 34.7131 80.1232 34.4318C79.7994 34.1463 79.4031 34.0036 78.9343 34.0036C78.3761 34.0036 77.9393 34.1783 77.6239 34.5277C77.3129 34.8729 77.1573 35.3224 77.1573 35.8764V42H74.8881V35.6719C74.8881 35.1648 74.7347 34.7599 74.4279 34.4574C74.1254 34.1548 73.729 34.0036 73.239 34.0036C72.9066 34.0036 72.604 34.0888 72.3313 34.2592C72.0586 34.4254 71.8413 34.6619 71.6793 34.9688C71.5174 35.2713 71.4364 35.625 71.4364 36.0298V42H69.1225ZM85.2768 45.6818V32.1818H87.5524V33.8054H87.6866C87.8059 33.5668 87.9743 33.3132 88.1916 33.0447C88.4089 32.772 88.7029 32.5398 89.0737 32.348C89.4444 32.152 89.9174 32.054 90.4927 32.054C91.2512 32.054 91.9352 32.2479 92.5446 32.6357C93.1582 33.0192 93.644 33.5881 94.002 34.3423C94.3642 35.0923 94.5453 36.0128 94.5453 37.1037C94.5453 38.1818 94.3684 39.098 94.0147 39.8523C93.661 40.6065 93.1795 41.1818 92.5701 41.5781C91.9608 41.9744 91.2704 42.1726 90.4991 42.1726C89.9366 42.1726 89.47 42.0788 89.0993 41.8913C88.7285 41.7038 88.4302 41.478 88.2044 41.2138C87.9828 40.9453 87.8102 40.6918 87.6866 40.4531H87.5907V45.6818H85.2768ZM87.546 37.0909C87.546 37.7259 87.6355 38.282 87.8145 38.7592C87.9977 39.2365 88.2598 39.6094 88.6007 39.8778C88.9458 40.142 89.3635 40.2741 89.8535 40.2741C90.3649 40.2741 90.7931 40.1378 91.1383 39.8651C91.4835 39.5881 91.7434 39.2109 91.9181 38.7337C92.0971 38.2521 92.1866 37.7045 92.1866 37.0909C92.1866 36.4815 92.0993 35.9403 91.9245 35.4673C91.7498 34.9943 91.4899 34.6236 91.1447 34.3551C90.7995 34.0866 90.3691 33.9524 89.8535 33.9524C89.3592 33.9524 88.9395 34.0824 88.5943 34.3423C88.2491 34.6023 87.987 34.9666 87.8081 35.4354C87.6333 35.9041 87.546 36.456 87.546 37.0909ZM98.8407 28.9091V42H96.5268V28.9091H98.8407ZM105.503 42.1918C104.544 42.1918 103.713 41.9808 103.01 41.5589C102.307 41.1371 101.761 40.5469 101.374 39.7884C100.99 39.0298 100.798 38.1435 100.798 37.1293C100.798 36.1151 100.99 35.2266 101.374 34.4638C101.761 33.701 102.307 33.1087 103.01 32.6868C103.713 32.2649 104.544 32.054 105.503 32.054C106.462 32.054 107.293 32.2649 107.996 32.6868C108.699 33.1087 109.242 33.701 109.626 34.4638C110.013 35.2266 110.207 36.1151 110.207 37.1293C110.207 38.1435 110.013 39.0298 109.626 39.7884C109.242 40.5469 108.699 41.1371 107.996 41.5589C107.293 41.9808 106.462 42.1918 105.503 42.1918ZM105.516 40.3381C106.036 40.3381 106.47 40.1953 106.82 39.9098C107.169 39.62 107.429 39.2322 107.599 38.7464C107.774 38.2607 107.862 37.7195 107.862 37.1229C107.862 36.522 107.774 35.9787 107.599 35.4929C107.429 35.0028 107.169 34.6129 106.82 34.3232C106.47 34.0334 106.036 33.8885 105.516 33.8885C104.983 33.8885 104.54 34.0334 104.186 34.3232C103.837 34.6129 103.575 35.0028 103.4 35.4929C103.229 35.9787 103.144 36.522 103.144 37.1229C103.144 37.7195 103.229 38.2607 103.4 38.7464C103.575 39.2322 103.837 39.62 104.186 39.9098C104.54 40.1953 104.983 40.3381 105.516 40.3381ZM113.276 45.6818C112.96 45.6818 112.668 45.6563 112.4 45.6051C112.136 45.5582 111.925 45.5028 111.767 45.4389L112.304 43.6364C112.641 43.7344 112.941 43.7813 113.205 43.777C113.469 43.7727 113.702 43.6896 113.902 43.5277C114.107 43.37 114.279 43.1058 114.42 42.7351L114.618 42.2045L111.058 32.1818H113.512L115.775 39.5966H115.877L118.146 32.1818H120.607L116.676 43.1889C116.493 43.7088 116.25 44.1541 115.947 44.5249C115.645 44.8999 115.274 45.1854 114.835 45.3814C114.401 45.5817 113.881 45.6818 113.276 45.6818ZM126.221 42.1918C125.237 42.1918 124.387 41.9872 123.671 41.5781C122.959 41.1648 122.411 40.581 122.028 39.8267C121.644 39.0682 121.453 38.1754 121.453 37.1484C121.453 36.1385 121.644 35.2521 122.028 34.4893C122.416 33.7223 122.957 33.1257 123.651 32.6996C124.346 32.2692 125.162 32.054 126.1 32.054C126.705 32.054 127.276 32.152 127.813 32.348C128.354 32.5398 128.831 32.8381 129.244 33.2429C129.662 33.6477 129.99 34.1634 130.229 34.7898C130.468 35.4119 130.587 36.1534 130.587 37.0142V37.7237H122.539V36.1641H128.369C128.365 35.7209 128.269 35.3267 128.081 34.9815C127.894 34.6321 127.632 34.3572 127.295 34.157C126.963 33.9567 126.575 33.8565 126.132 33.8565C125.659 33.8565 125.243 33.9716 124.885 34.2017C124.527 34.4276 124.248 34.7259 124.048 35.0966C123.852 35.4631 123.752 35.8658 123.747 36.3047V37.6662C123.747 38.2372 123.852 38.7273 124.061 39.1364C124.269 39.5412 124.561 39.8523 124.936 40.0696C125.311 40.2827 125.75 40.3892 126.253 40.3892C126.59 40.3892 126.894 40.3423 127.167 40.2486C127.44 40.1506 127.676 40.0078 127.877 39.8203C128.077 39.6328 128.228 39.4006 128.33 39.1236L130.491 39.3665C130.355 39.9375 130.095 40.4361 129.711 40.8622C129.332 41.2841 128.846 41.6122 128.254 41.8466C127.661 42.0767 126.984 42.1918 126.221 42.1918ZM136.891 42.1918C135.907 42.1918 135.056 41.9872 134.341 41.5781C133.629 41.1648 133.081 40.581 132.698 39.8267C132.314 39.0682 132.123 38.1754 132.123 37.1484C132.123 36.1385 132.314 35.2521 132.698 34.4893C133.086 33.7223 133.627 33.1257 134.321 32.6996C135.016 32.2692 135.832 32.054 136.77 32.054C137.375 32.054 137.946 32.152 138.483 32.348C139.024 32.5398 139.501 32.8381 139.914 33.2429C140.332 33.6477 140.66 34.1634 140.899 34.7898C141.137 35.4119 141.257 36.1534 141.257 37.0142V37.7237H133.209V36.1641H139.039C139.034 35.7209 138.939 35.3267 138.751 34.9815C138.564 34.6321 138.301 34.3572 137.965 34.157C137.632 33.9567 137.245 33.8565 136.801 33.8565C136.328 33.8565 135.913 33.9716 135.555 34.2017C135.197 34.4276 134.918 34.7259 134.718 35.0966C134.522 35.4631 134.422 35.8658 134.417 36.3047V37.6662C134.417 38.2372 134.522 38.7273 134.73 39.1364C134.939 39.5412 135.231 39.8523 135.606 40.0696C135.981 40.2827 136.42 40.3892 136.923 40.3892C137.26 40.3892 137.564 40.3423 137.837 40.2486C138.11 40.1506 138.346 40.0078 138.547 39.8203C138.747 39.6328 138.898 39.4006 139 39.1236L141.161 39.3665C141.025 39.9375 140.765 40.4361 140.381 40.8622C140.002 41.2841 139.516 41.6122 138.924 41.8466C138.331 42.0767 137.654 42.1918 136.891 42.1918ZM147.781 42V28.9091H150.153V40.0121H155.919V42H147.781ZM162.221 42.1918C161.237 42.1918 160.387 41.9872 159.671 41.5781C158.959 41.1648 158.411 40.581 158.028 39.8267C157.644 39.0682 157.453 38.1754 157.453 37.1484C157.453 36.1385 157.644 35.2521 158.028 34.4893C158.416 33.7223 158.957 33.1257 159.651 32.6996C160.346 32.2692 161.162 32.054 162.1 32.054C162.705 32.054 163.276 32.152 163.813 32.348C164.354 32.5398 164.831 32.8381 165.244 33.2429C165.662 33.6477 165.99 34.1634 166.229 34.7898C166.468 35.4119 166.587 36.1534 166.587 37.0142V37.7237H158.539V36.1641H164.369C164.365 35.7209 164.269 35.3267 164.081 34.9815C163.894 34.6321 163.632 34.3572 163.295 34.157C162.963 33.9567 162.575 33.8565 162.132 33.8565C161.659 33.8565 161.243 33.9716 160.885 34.2017C160.527 34.4276 160.248 34.7259 160.048 35.0966C159.852 35.4631 159.752 35.8658 159.747 36.3047V37.6662C159.747 38.2372 159.852 38.7273 160.061 39.1364C160.269 39.5412 160.561 39.8523 160.936 40.0696C161.311 40.2827 161.75 40.3892 162.253 40.3892C162.59 40.3892 162.894 40.3423 163.167 40.2486C163.44 40.1506 163.676 40.0078 163.877 39.8203C164.077 39.6328 164.228 39.4006 164.33 39.1236L166.491 39.3665C166.355 39.9375 166.095 40.4361 165.711 40.8622C165.332 41.2841 164.846 41.6122 164.254 41.8466C163.661 42.0767 162.984 42.1918 162.221 42.1918ZM171.37 42.1982C170.748 42.1982 170.187 42.0874 169.689 41.8658C169.194 41.6399 168.802 41.3075 168.512 40.8686C168.227 40.4297 168.084 39.8885 168.084 39.245C168.084 38.6911 168.186 38.233 168.391 37.8707C168.596 37.5085 168.875 37.2188 169.228 37.0014C169.582 36.7841 169.98 36.62 170.424 36.5092C170.871 36.3942 171.333 36.3111 171.811 36.2599C172.386 36.2003 172.853 36.147 173.211 36.1001C173.569 36.049 173.828 35.9723 173.99 35.87C174.157 35.7635 174.24 35.5994 174.24 35.3778V35.3395C174.24 34.858 174.097 34.4851 173.811 34.2209C173.526 33.9567 173.115 33.8246 172.578 33.8246C172.011 33.8246 171.561 33.9482 171.229 34.1953C170.901 34.4425 170.679 34.7344 170.564 35.071L168.404 34.7642C168.574 34.1676 168.855 33.669 169.248 33.2685C169.64 32.8636 170.119 32.5611 170.686 32.3608C171.252 32.1562 171.879 32.054 172.565 32.054C173.038 32.054 173.509 32.1094 173.978 32.2202C174.446 32.331 174.875 32.5142 175.262 32.7699C175.65 33.0213 175.961 33.3643 176.196 33.799C176.434 34.2337 176.554 34.777 176.554 35.429V42H174.329V40.6513H174.252C174.112 40.924 173.914 41.1797 173.658 41.4183C173.407 41.6527 173.089 41.8423 172.706 41.9872C172.326 42.1278 171.881 42.1982 171.37 42.1982ZM171.971 40.4979C172.435 40.4979 172.838 40.4062 173.179 40.223C173.52 40.0355 173.782 39.7884 173.965 39.4815C174.152 39.1747 174.246 38.8402 174.246 38.478V37.321C174.174 37.3807 174.05 37.4361 173.875 37.4872C173.705 37.5384 173.513 37.5831 173.3 37.6214C173.087 37.6598 172.876 37.6939 172.667 37.7237C172.458 37.7536 172.277 37.7791 172.124 37.8004C171.779 37.8473 171.47 37.924 171.197 38.0305C170.924 38.1371 170.709 38.2862 170.551 38.478C170.394 38.6655 170.315 38.9084 170.315 39.2067C170.315 39.6328 170.471 39.9545 170.782 40.1719C171.093 40.3892 171.489 40.4979 171.971 40.4979ZM187.299 32.1818L183.802 42H181.245L177.749 32.1818H180.216L182.473 39.4751H182.575L184.838 32.1818H187.299ZM192.912 42.1918C191.928 42.1918 191.078 41.9872 190.362 41.5781C189.65 41.1648 189.103 40.581 188.719 39.8267C188.336 39.0682 188.144 38.1754 188.144 37.1484C188.144 36.1385 188.336 35.2521 188.719 34.4893C189.107 33.7223 189.648 33.1257 190.343 32.6996C191.037 32.2692 191.854 32.054 192.791 32.054C193.396 32.054 193.967 32.152 194.504 32.348C195.045 32.5398 195.523 32.8381 195.936 33.2429C196.354 33.6477 196.682 34.1634 196.92 34.7898C197.159 35.4119 197.278 36.1534 197.278 37.0142V37.7237H189.231V36.1641H195.06C195.056 35.7209 194.96 35.3267 194.773 34.9815C194.585 34.6321 194.323 34.3572 193.986 34.157C193.654 33.9567 193.266 33.8565 192.823 33.8565C192.35 33.8565 191.934 33.9716 191.577 34.2017C191.219 34.4276 190.939 34.7259 190.739 35.0966C190.543 35.4631 190.443 35.8658 190.439 36.3047V37.6662C190.439 38.2372 190.543 38.7273 190.752 39.1364C190.961 39.5412 191.253 39.8523 191.628 40.0696C192.003 40.2827 192.442 40.3892 192.944 40.3892C193.281 40.3892 193.586 40.3423 193.858 40.2486C194.131 40.1506 194.368 40.0078 194.568 39.8203C194.768 39.6328 194.92 39.4006 195.022 39.1236L197.182 39.3665C197.046 39.9375 196.786 40.4361 196.403 40.8622C196.023 41.2841 195.537 41.6122 194.945 41.8466C194.353 42.0767 193.675 42.1918 192.912 42.1918Z" fill="black"/>
<path d="M63.4879 68.9091V82H61.1165V71.2166H61.0398L57.978 73.1726V70.9993L61.2315 68.9091H63.4879ZM66.8118 82V80.2869L71.3565 75.8317C71.7912 75.3928 72.1534 75.0028 72.4432 74.6619C72.733 74.321 72.9503 73.9908 73.0952 73.6712C73.2401 73.3516 73.3125 73.0107 73.3125 72.6484C73.3125 72.2351 73.2188 71.8814 73.0312 71.5874C72.8438 71.2891 72.5859 71.0589 72.2578 70.897C71.9297 70.7351 71.5568 70.6541 71.1392 70.6541C70.7088 70.6541 70.3317 70.7436 70.0078 70.9226C69.6839 71.0973 69.4325 71.3466 69.2536 71.6705C69.0788 71.9943 68.9915 72.38 68.9915 72.8274H66.7351C66.7351 71.9964 66.9247 71.2741 67.304 70.6605C67.6832 70.0469 68.2053 69.5717 68.87 69.2351C69.5391 68.8984 70.3061 68.7301 71.1712 68.7301C72.049 68.7301 72.8203 68.8942 73.4851 69.2223C74.1499 69.5504 74.6655 70 75.032 70.571C75.4027 71.142 75.5881 71.794 75.5881 72.527C75.5881 73.017 75.4943 73.4986 75.3068 73.9716C75.1193 74.4446 74.7891 74.9687 74.3161 75.544C73.8473 76.1193 73.1889 76.8161 72.3409 77.6342L70.0845 79.929V80.0185H75.7862V82H66.8118ZM82.6449 82.179C81.6946 82.179 80.8509 82.0192 80.1136 81.6996C79.3807 81.38 78.8054 80.9432 78.3878 80.3892C77.9744 79.831 77.7699 79.1982 77.7741 78.4908C77.7699 77.9411 77.8892 77.4361 78.1321 76.9759C78.375 76.5156 78.7031 76.1321 79.1165 75.8253C79.5341 75.5142 79.9986 75.3161 80.5099 75.2308V75.1413C79.8366 74.9922 79.2912 74.6491 78.8736 74.1122C78.4602 73.571 78.2557 72.9467 78.2599 72.2393C78.2557 71.5661 78.4432 70.9652 78.8224 70.4368C79.2017 69.9084 79.7216 69.4929 80.3821 69.1903C81.0426 68.8835 81.7969 68.7301 82.6449 68.7301C83.4844 68.7301 84.2322 68.8835 84.8885 69.1903C85.549 69.4929 86.0689 69.9084 86.4482 70.4368C86.8317 70.9652 87.0234 71.5661 87.0234 72.2393C87.0234 72.9467 86.8125 73.571 86.3906 74.1122C85.973 74.6491 85.4339 74.9922 84.7734 75.1413V75.2308C85.2848 75.3161 85.745 75.5142 86.1541 75.8253C86.5675 76.1321 86.8956 76.5156 87.1385 76.9759C87.3857 77.4361 87.5092 77.9411 87.5092 78.4908C87.5092 79.1982 87.3004 79.831 86.8828 80.3892C86.4652 80.9432 85.8899 81.38 85.157 81.6996C84.4283 82.0192 83.5909 82.179 82.6449 82.179ZM82.6449 80.3509C83.1349 80.3509 83.5611 80.2678 83.9233 80.1016C84.2855 79.9311 84.5668 79.6925 84.767 79.3857C84.9673 79.0788 85.0696 78.7251 85.0739 78.3246C85.0696 77.907 84.9609 77.5384 84.7479 77.2188C84.5391 76.8949 84.2514 76.6413 83.8849 76.4581C83.5227 76.2749 83.1094 76.1832 82.6449 76.1832C82.1761 76.1832 81.7585 76.2749 81.392 76.4581C81.0256 76.6413 80.7358 76.8949 80.5227 77.2188C80.3139 77.5384 80.2116 77.907 80.2159 78.3246C80.2116 78.7251 80.3097 79.0788 80.5099 79.3857C80.7102 79.6882 80.9915 79.9247 81.3537 80.0952C81.7202 80.2656 82.1506 80.3509 82.6449 80.3509ZM82.6449 74.3871C83.0455 74.3871 83.3991 74.3061 83.706 74.1442C84.017 73.9822 84.2621 73.7564 84.4411 73.4666C84.62 73.1768 84.7116 72.8423 84.7159 72.4631C84.7116 72.0881 84.6222 71.7599 84.4474 71.4787C84.2727 71.1932 84.0298 70.9737 83.7188 70.8203C83.4077 70.6626 83.0497 70.5838 82.6449 70.5838C82.2315 70.5838 81.8672 70.6626 81.5518 70.8203C81.2408 70.9737 80.9979 71.1932 80.8232 71.4787C80.6527 71.7599 80.5696 72.0881 80.5739 72.4631C80.5696 72.8423 80.6548 73.1768 80.8295 73.4666C81.0085 73.7521 81.2536 73.978 81.5646 74.1442C81.88 74.3061 82.2401 74.3871 82.6449 74.3871Z" fill="black"/>
<path d="M57.8608 103V94.2727H63.5369V95.598H59.4418V97.9673H63.2429V99.2926H59.4418V101.675H63.571V103H57.8608ZM65.0817 103V96.4545H66.5561V97.5668H66.6328C66.7692 97.1918 66.995 96.8991 67.3104 96.6889C67.6257 96.4759 68.0021 96.3693 68.4396 96.3693C68.8828 96.3693 69.2564 96.4773 69.5604 96.6932C69.8672 96.9062 70.0831 97.1974 70.2081 97.5668H70.2763C70.4212 97.2031 70.6655 96.9134 71.0092 96.6974C71.3558 96.4787 71.7663 96.3693 72.2408 96.3693C72.843 96.3693 73.3345 96.5597 73.7152 96.9403C74.0959 97.321 74.2862 97.8764 74.2862 98.6065V103H72.7393V98.8452C72.7393 98.4389 72.6314 98.142 72.4155 97.9545C72.1996 97.7642 71.9354 97.669 71.6229 97.669C71.2507 97.669 70.9595 97.7855 70.7493 98.0185C70.5419 98.2486 70.4382 98.5483 70.4382 98.9176V103H68.9254V98.7812C68.9254 98.4432 68.8232 98.1733 68.6186 97.9716C68.4169 97.7699 68.1527 97.669 67.826 97.669C67.6044 97.669 67.4027 97.7259 67.2209 97.8395C67.0391 97.9503 66.8942 98.108 66.7862 98.3125C66.6783 98.5142 66.6243 98.75 66.6243 99.0199V103H65.0817ZM75.8512 105.455V96.4545H77.3683V97.5369H77.4577C77.5373 97.3778 77.6495 97.2088 77.7944 97.0298C77.9393 96.848 78.1353 96.6932 78.3825 96.5653C78.6296 96.4347 78.945 96.3693 79.3285 96.3693C79.8342 96.3693 80.2901 96.4986 80.6964 96.7571C81.1055 97.0128 81.4293 97.392 81.668 97.8949C81.9094 98.3949 82.0302 99.0085 82.0302 99.7358C82.0302 100.455 81.9123 101.065 81.6765 101.568C81.4407 102.071 81.1197 102.455 80.7134 102.719C80.3072 102.983 79.8469 103.115 79.3327 103.115C78.9577 103.115 78.6467 103.053 78.3995 102.928C78.1523 102.803 77.9535 102.652 77.8029 102.476C77.6552 102.297 77.5401 102.128 77.4577 101.969H77.3938V105.455H75.8512ZM77.364 99.7273C77.364 100.151 77.4237 100.521 77.543 100.839C77.6651 101.158 77.8398 101.406 78.0671 101.585C78.2972 101.761 78.5756 101.849 78.9023 101.849C79.2433 101.849 79.5288 101.759 79.7589 101.577C79.989 101.392 80.1623 101.141 80.2788 100.822C80.3981 100.501 80.4577 100.136 80.4577 99.7273C80.4577 99.321 80.3995 98.9602 80.283 98.6449C80.1665 98.3295 79.9933 98.0824 79.7631 97.9034C79.533 97.7244 79.2461 97.6349 78.9023 97.6349C78.5728 97.6349 78.293 97.7216 78.0629 97.8949C77.8327 98.0682 77.658 98.3111 77.5387 98.6236C77.4222 98.9361 77.364 99.304 77.364 99.7273ZM84.8938 94.2727V103H83.3512V94.2727H84.8938ZM89.3352 103.128C88.696 103.128 88.142 102.987 87.6733 102.706C87.2045 102.425 86.8409 102.031 86.5824 101.526C86.3267 101.02 86.1989 100.429 86.1989 99.7528C86.1989 99.0767 86.3267 98.4844 86.5824 97.9759C86.8409 97.4673 87.2045 97.0724 87.6733 96.7912C88.142 96.5099 88.696 96.3693 89.3352 96.3693C89.9744 96.3693 90.5284 96.5099 90.9972 96.7912C91.4659 97.0724 91.8281 97.4673 92.0838 97.9759C92.3423 98.4844 92.4716 99.0767 92.4716 99.7528C92.4716 100.429 92.3423 101.02 92.0838 101.526C91.8281 102.031 91.4659 102.425 90.9972 102.706C90.5284 102.987 89.9744 103.128 89.3352 103.128ZM89.3438 101.892C89.6903 101.892 89.9801 101.797 90.2131 101.607C90.446 101.413 90.6193 101.155 90.733 100.831C90.8494 100.507 90.9077 100.146 90.9077 99.7486C90.9077 99.348 90.8494 98.9858 90.733 98.6619C90.6193 98.3352 90.446 98.0753 90.2131 97.8821C89.9801 97.6889 89.6903 97.5923 89.3438 97.5923C88.9886 97.5923 88.6932 97.6889 88.4574 97.8821C88.2244 98.0753 88.0497 98.3352 87.9332 98.6619C87.8196 98.9858 87.7628 99.348 87.7628 99.7486C87.7628 100.146 87.8196 100.507 87.9332 100.831C88.0497 101.155 88.2244 101.413 88.4574 101.607C88.6932 101.797 88.9886 101.892 89.3438 101.892ZM94.517 105.455C94.3068 105.455 94.1122 105.438 93.9332 105.403C93.7571 105.372 93.6165 105.335 93.5114 105.293L93.8693 104.091C94.0938 104.156 94.294 104.188 94.4702 104.185C94.6463 104.182 94.8011 104.126 94.9347 104.018C95.071 103.913 95.1861 103.737 95.2798 103.49L95.4119 103.136L93.0384 96.4545H94.6747L96.1832 101.398H96.2514L97.7642 96.4545H99.4048L96.7841 103.793C96.6619 104.139 96.5 104.436 96.2983 104.683C96.0966 104.933 95.8494 105.124 95.5568 105.254C95.267 105.388 94.9205 105.455 94.517 105.455ZM103.147 103.128C102.491 103.128 101.924 102.991 101.447 102.719C100.973 102.443 100.608 102.054 100.352 101.551C100.096 101.045 99.9684 100.45 99.9684 99.7656C99.9684 99.0923 100.096 98.5014 100.352 97.9929C100.61 97.4815 100.971 97.0838 101.434 96.7997C101.897 96.5128 102.441 96.3693 103.066 96.3693C103.47 96.3693 103.85 96.4347 104.208 96.5653C104.569 96.6932 104.887 96.892 105.163 97.1619C105.441 97.4318 105.66 97.7756 105.819 98.1932C105.978 98.608 106.058 99.1023 106.058 99.6761V100.149H100.693V99.1094H104.579C104.576 98.8139 104.512 98.5511 104.387 98.321C104.262 98.0881 104.088 97.9048 103.863 97.7713C103.642 97.6378 103.383 97.571 103.088 97.571C102.772 97.571 102.495 97.6477 102.257 97.8011C102.018 97.9517 101.832 98.1506 101.699 98.3977C101.568 98.642 101.501 98.9105 101.498 99.2031V100.111C101.498 100.491 101.568 100.818 101.707 101.091C101.846 101.361 102.041 101.568 102.291 101.713C102.541 101.855 102.833 101.926 103.169 101.926C103.393 101.926 103.596 101.895 103.778 101.832C103.96 101.767 104.118 101.672 104.251 101.547C104.385 101.422 104.485 101.267 104.554 101.082L105.994 101.244C105.903 101.625 105.73 101.957 105.474 102.241C105.221 102.523 104.897 102.741 104.502 102.898C104.108 103.051 103.656 103.128 103.147 103.128ZM110.261 103.128C109.604 103.128 109.038 102.991 108.56 102.719C108.086 102.443 107.721 102.054 107.465 101.551C107.21 101.045 107.082 100.45 107.082 99.7656C107.082 99.0923 107.21 98.5014 107.465 97.9929C107.724 97.4815 108.085 97.0838 108.548 96.7997C109.011 96.5128 109.555 96.3693 110.18 96.3693C110.583 96.3693 110.964 96.4347 111.322 96.5653C111.683 96.6932 112.001 96.892 112.276 97.1619C112.555 97.4318 112.773 97.7756 112.933 98.1932C113.092 98.608 113.171 99.1023 113.171 99.6761V100.149H107.806V99.1094H111.692C111.69 98.8139 111.626 98.5511 111.501 98.321C111.376 98.0881 111.201 97.9048 110.977 97.7713C110.755 97.6378 110.496 97.571 110.201 97.571C109.886 97.571 109.609 97.6477 109.37 97.8011C109.131 97.9517 108.945 98.1506 108.812 98.3977C108.681 98.642 108.614 98.9105 108.612 99.2031V100.111C108.612 100.491 108.681 100.818 108.82 101.091C108.96 101.361 109.154 101.568 109.404 101.713C109.654 101.855 109.947 101.926 110.282 101.926C110.506 101.926 110.71 101.895 110.891 101.832C111.073 101.767 111.231 101.672 111.364 101.547C111.498 101.422 111.599 101.267 111.667 101.082L113.107 101.244C113.016 101.625 112.843 101.957 112.587 102.241C112.335 102.523 112.011 102.741 111.616 102.898C111.221 103.051 110.769 103.128 110.261 103.128ZM118.995 94.2727V103H117.453V94.2727H118.995ZM123.479 103.128C122.823 103.128 122.256 102.991 121.779 102.719C121.305 102.443 120.94 102.054 120.684 101.551C120.428 101.045 120.3 100.45 120.3 99.7656C120.3 99.0923 120.428 98.5014 120.684 97.9929C120.942 97.4815 121.303 97.0838 121.766 96.7997C122.229 96.5128 122.773 96.3693 123.398 96.3693C123.802 96.3693 124.183 96.4347 124.54 96.5653C124.901 96.6932 125.219 96.892 125.495 97.1619C125.773 97.4318 125.992 97.7756 126.151 98.1932C126.31 98.608 126.39 99.1023 126.39 99.6761V100.149H121.025V99.1094H124.911C124.908 98.8139 124.844 98.5511 124.719 98.321C124.594 98.0881 124.42 97.9048 124.195 97.7713C123.974 97.6378 123.715 97.571 123.42 97.571C123.104 97.571 122.827 97.6477 122.589 97.8011C122.35 97.9517 122.164 98.1506 122.031 98.3977C121.9 98.642 121.833 98.9105 121.83 99.2031V100.111C121.83 100.491 121.9 100.818 122.039 101.091C122.178 101.361 122.373 101.568 122.623 101.713C122.873 101.855 123.165 101.926 123.501 101.926C123.725 101.926 123.928 101.895 124.11 101.832C124.292 101.767 124.45 101.672 124.583 101.547C124.717 101.422 124.817 101.267 124.886 101.082L126.326 101.244C126.235 101.625 126.062 101.957 125.806 102.241C125.553 102.523 125.229 102.741 124.835 102.898C124.44 103.051 123.988 103.128 123.479 103.128ZM129.578 103.132C129.164 103.132 128.79 103.058 128.458 102.911C128.128 102.76 127.867 102.538 127.674 102.246C127.483 101.953 127.388 101.592 127.388 101.163C127.388 100.794 127.456 100.489 127.593 100.247C127.729 100.006 127.915 99.8125 128.151 99.6676C128.387 99.5227 128.652 99.4134 128.948 99.3395C129.246 99.2628 129.554 99.2074 129.873 99.1733C130.256 99.1335 130.567 99.098 130.806 99.0668C131.044 99.0327 131.218 98.9815 131.326 98.9134C131.436 98.8423 131.492 98.733 131.492 98.5852V98.5597C131.492 98.2386 131.397 97.9901 131.206 97.8139C131.016 97.6378 130.742 97.5497 130.384 97.5497C130.006 97.5497 129.706 97.6321 129.485 97.7969C129.266 97.9616 129.118 98.1562 129.042 98.3807L127.601 98.1761C127.715 97.7784 127.902 97.446 128.164 97.179C128.425 96.9091 128.745 96.7074 129.123 96.5739C129.5 96.4375 129.918 96.3693 130.375 96.3693C130.691 96.3693 131.005 96.4062 131.317 96.4801C131.63 96.554 131.915 96.6761 132.174 96.8466C132.432 97.0142 132.64 97.2429 132.796 97.5327C132.955 97.8224 133.034 98.1847 133.034 98.6193V103H131.551V102.101H131.5C131.407 102.283 131.275 102.453 131.104 102.612C130.936 102.768 130.725 102.895 130.469 102.991C130.216 103.085 129.919 103.132 129.578 103.132ZM129.979 101.999C130.289 101.999 130.557 101.937 130.784 101.815C131.012 101.69 131.186 101.526 131.309 101.321C131.434 101.116 131.496 100.893 131.496 100.652V99.8807C131.448 99.9205 131.365 99.9574 131.249 99.9915C131.135 100.026 131.007 100.055 130.865 100.081C130.723 100.107 130.583 100.129 130.444 100.149C130.304 100.169 130.184 100.186 130.081 100.2C129.851 100.232 129.645 100.283 129.463 100.354C129.282 100.425 129.138 100.524 129.033 100.652C128.928 100.777 128.875 100.939 128.875 101.138C128.875 101.422 128.979 101.636 129.186 101.781C129.394 101.926 129.658 101.999 129.979 101.999ZM140.198 96.4545L137.867 103H136.162L133.831 96.4545H135.476L136.98 101.317H137.049L138.557 96.4545H140.198ZM143.94 103.128C143.284 103.128 142.717 102.991 142.24 102.719C141.766 102.443 141.401 102.054 141.145 101.551C140.889 101.045 140.761 100.45 140.761 99.7656C140.761 99.0923 140.889 98.5014 141.145 97.9929C141.403 97.4815 141.764 97.0838 142.227 96.7997C142.69 96.5128 143.234 96.3693 143.859 96.3693C144.263 96.3693 144.643 96.4347 145.001 96.5653C145.362 96.6932 145.68 96.892 145.956 97.1619C146.234 97.4318 146.453 97.7756 146.612 98.1932C146.771 98.608 146.851 99.1023 146.851 99.6761V100.149H141.486V99.1094H145.372C145.369 98.8139 145.305 98.5511 145.18 98.321C145.055 98.0881 144.881 97.9048 144.656 97.7713C144.435 97.6378 144.176 97.571 143.881 97.571C143.565 97.571 143.288 97.6477 143.05 97.8011C142.811 97.9517 142.625 98.1506 142.491 98.3977C142.361 98.642 142.294 98.9105 142.291 99.2031V100.111C142.291 100.491 142.361 100.818 142.5 101.091C142.639 101.361 142.834 101.568 143.084 101.713C143.334 101.855 143.626 101.926 143.962 101.926C144.186 101.926 144.389 101.895 144.571 101.832C144.753 101.767 144.911 101.672 145.044 101.547C145.178 101.422 145.278 101.267 145.347 101.082L146.787 101.244C146.696 101.625 146.523 101.957 146.267 102.241C146.014 102.523 145.69 102.741 145.295 102.898C144.901 103.051 144.449 103.128 143.94 103.128Z" fill="#9F9F9F"/>
<path d="M189.818 103H186.861V94.2727H189.878C190.744 94.2727 191.489 94.4474 192.111 94.7969C192.736 95.1435 193.216 95.642 193.551 96.2926C193.886 96.9432 194.054 97.7216 194.054 98.6278C194.054 99.5369 193.885 100.318 193.547 100.972C193.212 101.625 192.727 102.126 192.094 102.476C191.463 102.825 190.705 103 189.818 103ZM188.442 101.632H189.741C190.349 101.632 190.857 101.521 191.263 101.3C191.669 101.075 191.974 100.741 192.179 100.298C192.384 99.8523 192.486 99.2955 192.486 98.6278C192.486 97.9602 192.384 97.4062 192.179 96.9659C191.974 96.5227 191.672 96.1918 191.271 95.973C190.874 95.7514 190.379 95.6406 189.788 95.6406H188.442V101.632ZM198.386 103.128C197.729 103.128 197.163 102.991 196.685 102.719C196.211 102.443 195.846 102.054 195.59 101.551C195.335 101.045 195.207 100.45 195.207 99.7656C195.207 99.0923 195.335 98.5014 195.59 97.9929C195.849 97.4815 196.21 97.0838 196.673 96.7997C197.136 96.5128 197.68 96.3693 198.305 96.3693C198.708 96.3693 199.089 96.4347 199.447 96.5653C199.808 96.6932 200.126 96.892 200.401 97.1619C200.68 97.4318 200.898 97.7756 201.058 98.1932C201.217 98.608 201.296 99.1023 201.296 99.6761V100.149H195.931V99.1094H199.817C199.815 98.8139 199.751 98.5511 199.626 98.321C199.501 98.0881 199.326 97.9048 199.102 97.7713C198.88 97.6378 198.621 97.571 198.326 97.571C198.011 97.571 197.734 97.6477 197.495 97.8011C197.256 97.9517 197.07 98.1506 196.937 98.3977C196.806 98.642 196.739 98.9105 196.737 99.2031V100.111C196.737 100.491 196.806 100.818 196.945 101.091C197.085 101.361 197.279 101.568 197.529 101.713C197.779 101.855 198.072 101.926 198.407 101.926C198.631 101.926 198.835 101.895 199.016 101.832C199.198 101.767 199.356 101.672 199.489 101.547C199.623 101.422 199.724 101.267 199.792 101.082L201.232 101.244C201.141 101.625 200.968 101.957 200.712 102.241C200.46 102.523 200.136 102.741 199.741 102.898C199.346 103.051 198.894 103.128 198.386 103.128ZM202.601 105.455V96.4545H204.118V97.5369H204.208C204.287 97.3778 204.4 97.2088 204.544 97.0298C204.689 96.848 204.885 96.6932 205.132 96.5653C205.38 96.4347 205.695 96.3693 206.078 96.3693C206.584 96.3693 207.04 96.4986 207.446 96.7571C207.855 97.0128 208.179 97.392 208.418 97.8949C208.659 98.3949 208.78 99.0085 208.78 99.7358C208.78 100.455 208.662 101.065 208.426 101.568C208.191 102.071 207.87 102.455 207.463 102.719C207.057 102.983 206.597 103.115 206.083 103.115C205.708 103.115 205.397 103.053 205.15 102.928C204.902 102.803 204.703 102.652 204.553 102.476C204.405 102.297 204.29 102.128 204.208 101.969H204.144V105.455H202.601ZM204.114 99.7273C204.114 100.151 204.174 100.521 204.293 100.839C204.415 101.158 204.59 101.406 204.817 101.585C205.047 101.761 205.326 101.849 205.652 101.849C205.993 101.849 206.279 101.759 206.509 101.577C206.739 101.392 206.912 101.141 207.029 100.822C207.148 100.501 207.208 100.136 207.208 99.7273C207.208 99.321 207.15 98.9602 207.033 98.6449C206.917 98.3295 206.743 98.0824 206.513 97.9034C206.283 97.7244 205.996 97.6349 205.652 97.6349C205.323 97.6349 205.043 97.7216 204.813 97.8949C204.583 98.0682 204.408 98.3111 204.289 98.6236C204.172 98.9361 204.114 99.304 204.114 99.7273ZM211.985 103.132C211.57 103.132 211.196 103.058 210.864 102.911C210.534 102.76 210.273 102.538 210.08 102.246C209.89 101.953 209.794 101.592 209.794 101.163C209.794 100.794 209.863 100.489 209.999 100.247C210.135 100.006 210.321 99.8125 210.557 99.6676C210.793 99.5227 211.059 99.4134 211.354 99.3395C211.652 99.2628 211.961 99.2074 212.279 99.1733C212.662 99.1335 212.973 99.098 213.212 99.0668C213.451 99.0327 213.624 98.9815 213.732 98.9134C213.843 98.8423 213.898 98.733 213.898 98.5852V98.5597C213.898 98.2386 213.803 97.9901 213.613 97.8139C213.422 97.6378 213.148 97.5497 212.79 97.5497C212.412 97.5497 212.113 97.6321 211.891 97.7969C211.672 97.9616 211.525 98.1562 211.448 98.3807L210.007 98.1761C210.121 97.7784 210.309 97.446 210.57 97.179C210.831 96.9091 211.151 96.7074 211.529 96.5739C211.907 96.4375 212.324 96.3693 212.782 96.3693C213.097 96.3693 213.411 96.4062 213.723 96.4801C214.036 96.554 214.321 96.6761 214.58 96.8466C214.838 97.0142 215.046 97.2429 215.202 97.5327C215.361 97.8224 215.441 98.1847 215.441 98.6193V103H213.958V102.101H213.907C213.813 102.283 213.681 102.453 213.51 102.612C213.343 102.768 213.131 102.895 212.875 102.991C212.623 103.085 212.326 103.132 211.985 103.132ZM212.385 101.999C212.695 101.999 212.963 101.937 213.191 101.815C213.418 101.69 213.593 101.526 213.715 101.321C213.84 101.116 213.902 100.893 213.902 100.652V99.8807C213.854 99.9205 213.772 99.9574 213.655 99.9915C213.542 100.026 213.414 100.055 213.272 100.081C213.13 100.107 212.989 100.129 212.85 100.149C212.711 100.169 212.59 100.186 212.488 100.2C212.257 100.232 212.051 100.283 211.87 100.354C211.688 100.425 211.544 100.524 211.439 100.652C211.334 100.777 211.282 100.939 211.282 101.138C211.282 101.422 211.385 101.636 211.593 101.781C211.8 101.926 212.064 101.999 212.385 101.999ZM216.992 103V96.4545H218.488V97.5455H218.556C218.675 97.1676 218.88 96.8764 219.169 96.6719C219.462 96.4645 219.796 96.3608 220.171 96.3608C220.256 96.3608 220.351 96.3651 220.456 96.3736C220.564 96.3793 220.654 96.3892 220.725 96.4034V97.8224C220.659 97.7997 220.556 97.7798 220.414 97.7628C220.275 97.7429 220.14 97.733 220.009 97.733C219.728 97.733 219.475 97.794 219.25 97.9162C219.029 98.0355 218.854 98.2017 218.726 98.4148C218.598 98.6278 218.534 98.8736 218.534 99.152V103H216.992ZM225.37 96.4545V97.6477H221.607V96.4545H225.37ZM222.536 94.8864H224.078V101.031C224.078 101.239 224.11 101.398 224.172 101.509C224.238 101.616 224.323 101.69 224.428 101.73C224.533 101.77 224.65 101.79 224.777 101.79C224.874 101.79 224.962 101.783 225.042 101.768C225.124 101.754 225.186 101.741 225.229 101.73L225.489 102.936C225.407 102.964 225.289 102.996 225.135 103.03C224.985 103.064 224.8 103.084 224.581 103.089C224.195 103.101 223.847 103.043 223.537 102.915C223.228 102.784 222.982 102.582 222.8 102.31C222.621 102.037 222.533 101.696 222.536 101.287V94.8864ZM226.66 103V96.4545H228.134V97.5668H228.211C228.347 97.1918 228.573 96.8991 228.888 96.6889C229.204 96.4759 229.58 96.3693 230.018 96.3693C230.461 96.3693 230.835 96.4773 231.138 96.6932C231.445 96.9062 231.661 97.1974 231.786 97.5668H231.854C231.999 97.2031 232.244 96.9134 232.587 96.6974C232.934 96.4787 233.344 96.3693 233.819 96.3693C234.421 96.3693 234.913 96.5597 235.293 96.9403C235.674 97.321 235.864 97.8764 235.864 98.6065V103H234.317V98.8452C234.317 98.4389 234.21 98.142 233.994 97.9545C233.778 97.7642 233.513 97.669 233.201 97.669C232.829 97.669 232.538 97.7855 232.327 98.0185C232.12 98.2486 232.016 98.5483 232.016 98.9176V103H230.504V98.7812C230.504 98.4432 230.401 98.1733 230.197 97.9716C229.995 97.7699 229.731 97.669 229.404 97.669C229.183 97.669 228.981 97.7259 228.799 97.8395C228.617 97.9503 228.472 98.108 228.364 98.3125C228.256 98.5142 228.202 98.75 228.202 99.0199V103H226.66ZM240.327 103.128C239.671 103.128 239.104 102.991 238.627 102.719C238.152 102.443 237.787 102.054 237.532 101.551C237.276 101.045 237.148 100.45 237.148 99.7656C237.148 99.0923 237.276 98.5014 237.532 97.9929C237.79 97.4815 238.151 97.0838 238.614 96.7997C239.077 96.5128 239.621 96.3693 240.246 96.3693C240.65 96.3693 241.03 96.4347 241.388 96.5653C241.749 96.6932 242.067 96.892 242.343 97.1619C242.621 97.4318 242.84 97.7756 242.999 98.1932C243.158 98.608 243.238 99.1023 243.238 99.6761V100.149H237.873V99.1094H241.759C241.756 98.8139 241.692 98.5511 241.567 98.321C241.442 98.0881 241.267 97.9048 241.043 97.7713C240.821 97.6378 240.563 97.571 240.267 97.571C239.952 97.571 239.675 97.6477 239.436 97.8011C239.198 97.9517 239.012 98.1506 238.878 98.3977C238.748 98.642 238.681 98.9105 238.678 99.2031V100.111C238.678 100.491 238.748 100.818 238.887 101.091C239.026 101.361 239.221 101.568 239.471 101.713C239.721 101.855 240.013 101.926 240.348 101.926C240.573 101.926 240.776 101.895 240.958 101.832C241.14 101.767 241.297 101.672 241.431 101.547C241.564 101.422 241.665 101.267 241.733 101.082L243.174 101.244C243.083 101.625 242.909 101.957 242.654 102.241C242.401 102.523 242.077 102.741 241.682 102.898C241.287 103.051 240.836 103.128 240.327 103.128ZM246.085 99.1648V103H244.543V96.4545H246.017V97.5668H246.094C246.244 97.2003 246.484 96.9091 246.814 96.6932C247.146 96.4773 247.557 96.3693 248.045 96.3693C248.497 96.3693 248.891 96.4659 249.226 96.6591C249.564 96.8523 249.825 97.1321 250.01 97.4986C250.197 97.8651 250.29 98.3097 250.287 98.8324V103H248.744V99.071C248.744 98.6335 248.631 98.2912 248.403 98.044C248.179 97.7969 247.868 97.6733 247.47 97.6733C247.2 97.6733 246.96 97.733 246.75 97.8523C246.543 97.9687 246.379 98.1378 246.26 98.3594C246.143 98.581 246.085 98.8494 246.085 99.1648ZM255.124 96.4545V97.6477H251.361V96.4545H255.124ZM252.29 94.8864H253.832V101.031C253.832 101.239 253.864 101.398 253.926 101.509C253.991 101.616 254.077 101.69 254.182 101.73C254.287 101.77 254.403 101.79 254.531 101.79C254.628 101.79 254.716 101.783 254.795 101.768C254.878 101.754 254.94 101.741 254.983 101.73L255.243 102.936C255.161 102.964 255.043 102.996 254.889 103.03C254.739 103.064 254.554 103.084 254.335 103.089C253.949 103.101 253.601 103.043 253.291 102.915C252.982 102.784 252.736 102.582 252.554 102.31C252.375 102.037 252.287 101.696 252.29 101.287V94.8864ZM261.493 98.1847L260.087 98.3381C260.047 98.196 259.978 98.0625 259.878 97.9375C259.782 97.8125 259.651 97.7116 259.486 97.6349C259.321 97.5582 259.12 97.5199 258.881 97.5199C258.56 97.5199 258.29 97.5895 258.071 97.7287C257.855 97.8679 257.749 98.0483 257.752 98.2699C257.749 98.4602 257.819 98.6151 257.961 98.7344C258.105 98.8537 258.344 98.9517 258.676 99.0284L259.793 99.267C260.412 99.4006 260.873 99.6122 261.174 99.902C261.478 100.192 261.631 100.571 261.634 101.04C261.631 101.452 261.51 101.815 261.272 102.131C261.036 102.443 260.708 102.687 260.287 102.864C259.867 103.04 259.384 103.128 258.838 103.128C258.037 103.128 257.392 102.96 256.904 102.625C256.415 102.287 256.124 101.817 256.03 101.214L257.534 101.07C257.603 101.365 257.748 101.588 257.969 101.739C258.191 101.889 258.479 101.964 258.834 101.964C259.201 101.964 259.495 101.889 259.716 101.739C259.941 101.588 260.053 101.402 260.053 101.18C260.053 100.993 259.98 100.838 259.836 100.716C259.694 100.594 259.472 100.5 259.171 100.435L258.054 100.2C257.426 100.07 256.962 99.8494 256.661 99.5398C256.36 99.2273 256.211 98.8324 256.213 98.3551C256.211 97.9517 256.32 97.6023 256.542 97.3068C256.766 97.0085 257.077 96.7784 257.475 96.6165C257.875 96.4517 258.337 96.3693 258.86 96.3693C259.627 96.3693 260.23 96.5327 260.671 96.8594C261.114 97.1861 261.388 97.6278 261.493 98.1847Z" fill="#9F9F9F"/>
<path d="M191.714 82.179C190.862 82.179 190.099 82.0192 189.426 81.6996C188.753 81.3757 188.218 80.9325 187.822 80.37C187.43 79.8075 187.221 79.1641 187.195 78.4396H189.496C189.539 78.9766 189.771 79.4155 190.193 79.7564C190.615 80.093 191.122 80.2614 191.714 80.2614C192.179 80.2614 192.592 80.1548 192.955 79.9418C193.317 79.7287 193.602 79.4325 193.811 79.0533C194.02 78.674 194.122 78.2415 194.118 77.7557C194.122 77.2614 194.018 76.8224 193.805 76.4389C193.592 76.0554 193.3 75.755 192.929 75.5376C192.558 75.3161 192.132 75.2053 191.651 75.2053C191.259 75.201 190.873 75.2734 190.494 75.4226C190.114 75.5717 189.814 75.7678 189.592 76.0107L187.451 75.6591L188.135 68.9091H195.729V70.8906H190.097L189.72 74.3615H189.797C190.04 74.076 190.383 73.8395 190.826 73.652C191.269 73.4602 191.755 73.3643 192.283 73.3643C193.076 73.3643 193.783 73.5518 194.406 73.9268C195.028 74.2976 195.518 74.8089 195.876 75.4609C196.234 76.1129 196.413 76.8587 196.413 77.6982C196.413 78.5632 196.212 79.3345 195.812 80.0121C195.415 80.6854 194.864 81.2159 194.156 81.6037C193.453 81.9872 192.639 82.179 191.714 82.179Z" fill="black"/>
<rect x="391.5" y="78.5" width="99" height="17" rx="4.5" fill="#F2F2F2" stroke="#D9D9D9"/>
<rect x="512" y="78" width="100" height="18" rx="5" fill="#5EAEF8"/>
<path d="M67 127.5H611C616.247 127.5 620.5 131.753 620.5 137V318.5H57.5V137C57.5 131.753 61.7533 127.5 67 127.5Z" fill="white" stroke="#DDD6D6"/>
<path d="M117.442 141.273V150H115.861V141.273H117.442ZM121.515 150.115C121 150.115 120.54 149.983 120.134 149.719C119.728 149.455 119.407 149.071 119.171 148.568C118.935 148.065 118.817 147.455 118.817 146.736C118.817 146.009 118.936 145.395 119.175 144.895C119.417 144.392 119.742 144.013 120.151 143.757C120.56 143.499 121.016 143.369 121.519 143.369C121.902 143.369 122.218 143.435 122.465 143.565C122.712 143.693 122.908 143.848 123.053 144.03C123.198 144.209 123.31 144.378 123.39 144.537H123.453V141.273H125V150H123.483V148.969H123.39C123.31 149.128 123.195 149.297 123.044 149.476C122.894 149.652 122.695 149.803 122.448 149.928C122.201 150.053 121.89 150.115 121.515 150.115ZM121.945 148.849C122.272 148.849 122.55 148.761 122.78 148.585C123.01 148.406 123.185 148.158 123.304 147.839C123.424 147.521 123.483 147.151 123.483 146.727C123.483 146.304 123.424 145.936 123.304 145.624C123.188 145.311 123.015 145.068 122.784 144.895C122.557 144.722 122.277 144.635 121.945 144.635C121.601 144.635 121.314 144.724 121.084 144.903C120.854 145.082 120.681 145.33 120.564 145.645C120.448 145.96 120.39 146.321 120.39 146.727C120.39 147.136 120.448 147.501 120.564 147.822C120.684 148.141 120.858 148.392 121.088 148.577C121.321 148.759 121.607 148.849 121.945 148.849Z" fill="black"/>
<path d="M212.033 141.273V150H210.626L206.514 144.055H206.442V150H204.861V141.273H206.276L210.384 147.222H210.46V141.273H212.033ZM215.571 150.132C215.156 150.132 214.782 150.058 214.45 149.911C214.12 149.76 213.859 149.538 213.666 149.246C213.475 148.953 213.38 148.592 213.38 148.163C213.38 147.794 213.449 147.489 213.585 147.247C213.721 147.006 213.907 146.812 214.143 146.668C214.379 146.523 214.645 146.413 214.94 146.339C215.238 146.263 215.547 146.207 215.865 146.173C216.248 146.134 216.559 146.098 216.798 146.067C217.037 146.033 217.21 145.982 217.318 145.913C217.429 145.842 217.484 145.733 217.484 145.585V145.56C217.484 145.239 217.389 144.99 217.199 144.814C217.008 144.638 216.734 144.55 216.376 144.55C215.998 144.55 215.699 144.632 215.477 144.797C215.258 144.962 215.11 145.156 215.034 145.381L213.593 145.176C213.707 144.778 213.895 144.446 214.156 144.179C214.417 143.909 214.737 143.707 215.115 143.574C215.493 143.438 215.91 143.369 216.368 143.369C216.683 143.369 216.997 143.406 217.309 143.48C217.622 143.554 217.907 143.676 218.166 143.847C218.424 144.014 218.632 144.243 218.788 144.533C218.947 144.822 219.027 145.185 219.027 145.619V150H217.544V149.101H217.493C217.399 149.283 217.267 149.453 217.096 149.612C216.929 149.768 216.717 149.895 216.461 149.991C216.208 150.085 215.912 150.132 215.571 150.132ZM215.971 148.999C216.281 148.999 216.549 148.937 216.777 148.815C217.004 148.69 217.179 148.526 217.301 148.321C217.426 148.116 217.488 147.893 217.488 147.652V146.881C217.44 146.92 217.358 146.957 217.241 146.991C217.127 147.026 217 147.055 216.858 147.081C216.716 147.107 216.575 147.129 216.436 147.149C216.297 147.169 216.176 147.186 216.074 147.2C215.843 147.232 215.637 147.283 215.456 147.354C215.274 147.425 215.13 147.524 215.025 147.652C214.92 147.777 214.868 147.939 214.868 148.138C214.868 148.422 214.971 148.636 215.179 148.781C215.386 148.926 215.65 148.999 215.971 148.999ZM220.578 150V143.455H222.052V144.567H222.129C222.265 144.192 222.491 143.899 222.806 143.689C223.122 143.476 223.498 143.369 223.936 143.369C224.379 143.369 224.752 143.477 225.056 143.693C225.363 143.906 225.579 144.197 225.704 144.567H225.772C225.917 144.203 226.162 143.913 226.505 143.697C226.852 143.479 227.262 143.369 227.737 143.369C228.339 143.369 228.831 143.56 229.211 143.94C229.592 144.321 229.782 144.876 229.782 145.607V150H228.235V145.845C228.235 145.439 228.127 145.142 227.912 144.955C227.696 144.764 227.431 144.669 227.119 144.669C226.747 144.669 226.456 144.786 226.245 145.018C226.038 145.249 225.934 145.548 225.934 145.918V150H224.422V145.781C224.422 145.443 224.319 145.173 224.115 144.972C223.913 144.77 223.649 144.669 223.322 144.669C223.1 144.669 222.899 144.726 222.717 144.839C222.535 144.95 222.39 145.108 222.282 145.312C222.174 145.514 222.12 145.75 222.12 146.02V150H220.578ZM234.245 150.128C233.589 150.128 233.022 149.991 232.545 149.719C232.07 149.443 231.705 149.054 231.45 148.551C231.194 148.045 231.066 147.45 231.066 146.766C231.066 146.092 231.194 145.501 231.45 144.993C231.708 144.482 232.069 144.084 232.532 143.8C232.995 143.513 233.539 143.369 234.164 143.369C234.567 143.369 234.948 143.435 235.306 143.565C235.667 143.693 235.985 143.892 236.261 144.162C236.539 144.432 236.758 144.776 236.917 145.193C237.076 145.608 237.156 146.102 237.156 146.676V147.149H231.79V146.109H235.677C235.674 145.814 235.61 145.551 235.485 145.321C235.36 145.088 235.185 144.905 234.961 144.771C234.739 144.638 234.481 144.571 234.185 144.571C233.87 144.571 233.593 144.648 233.354 144.801C233.116 144.952 232.93 145.151 232.796 145.398C232.665 145.642 232.599 145.911 232.596 146.203V147.111C232.596 147.491 232.665 147.818 232.805 148.091C232.944 148.361 233.138 148.568 233.388 148.713C233.638 148.855 233.931 148.926 234.266 148.926C234.491 148.926 234.694 148.895 234.876 148.832C235.058 148.767 235.215 148.672 235.349 148.547C235.482 148.422 235.583 148.267 235.651 148.082L237.092 148.244C237.001 148.625 236.827 148.957 236.572 149.241C236.319 149.523 235.995 149.741 235.6 149.898C235.205 150.051 234.754 150.128 234.245 150.128Z" fill="black"/>
<path d="M353.818 150H350.861V141.273H353.878C354.744 141.273 355.489 141.447 356.111 141.797C356.736 142.143 357.216 142.642 357.551 143.293C357.886 143.943 358.054 144.722 358.054 145.628C358.054 146.537 357.885 147.318 357.547 147.972C357.212 148.625 356.727 149.126 356.094 149.476C355.463 149.825 354.705 150 353.818 150ZM352.442 148.632H353.741C354.349 148.632 354.857 148.521 355.263 148.3C355.669 148.075 355.974 147.741 356.179 147.298C356.384 146.852 356.486 146.295 356.486 145.628C356.486 144.96 356.384 144.406 356.179 143.966C355.974 143.523 355.672 143.192 355.271 142.973C354.874 142.751 354.379 142.641 353.788 142.641H352.442V148.632ZM362.386 150.128C361.729 150.128 361.163 149.991 360.685 149.719C360.211 149.443 359.846 149.054 359.59 148.551C359.335 148.045 359.207 147.45 359.207 146.766C359.207 146.092 359.335 145.501 359.59 144.993C359.849 144.482 360.21 144.084 360.673 143.8C361.136 143.513 361.68 143.369 362.305 143.369C362.708 143.369 363.089 143.435 363.447 143.565C363.808 143.693 364.126 143.892 364.401 144.162C364.68 144.432 364.898 144.776 365.058 145.193C365.217 145.608 365.296 146.102 365.296 146.676V147.149H359.931V146.109H363.817C363.815 145.814 363.751 145.551 363.626 145.321C363.501 145.088 363.326 144.905 363.102 144.771C362.88 144.638 362.621 144.571 362.326 144.571C362.011 144.571 361.734 144.648 361.495 144.801C361.256 144.952 361.07 145.151 360.937 145.398C360.806 145.642 360.739 145.911 360.737 146.203V147.111C360.737 147.491 360.806 147.818 360.945 148.091C361.085 148.361 361.279 148.568 361.529 148.713C361.779 148.855 362.072 148.926 362.407 148.926C362.631 148.926 362.835 148.895 363.016 148.832C363.198 148.767 363.356 148.672 363.489 148.547C363.623 148.422 363.724 148.267 363.792 148.082L365.232 148.244C365.141 148.625 364.968 148.957 364.712 149.241C364.46 149.523 364.136 149.741 363.741 149.898C363.346 150.051 362.894 150.128 362.386 150.128ZM366.601 152.455V143.455H368.118V144.537H368.208C368.287 144.378 368.4 144.209 368.544 144.03C368.689 143.848 368.885 143.693 369.132 143.565C369.38 143.435 369.695 143.369 370.078 143.369C370.584 143.369 371.04 143.499 371.446 143.757C371.855 144.013 372.179 144.392 372.418 144.895C372.659 145.395 372.78 146.009 372.78 146.736C372.78 147.455 372.662 148.065 372.426 148.568C372.191 149.071 371.87 149.455 371.463 149.719C371.057 149.983 370.597 150.115 370.083 150.115C369.708 150.115 369.397 150.053 369.15 149.928C368.902 149.803 368.703 149.652 368.553 149.476C368.405 149.297 368.29 149.128 368.208 148.969H368.144V152.455H366.601ZM368.114 146.727C368.114 147.151 368.174 147.521 368.293 147.839C368.415 148.158 368.59 148.406 368.817 148.585C369.047 148.761 369.326 148.849 369.652 148.849C369.993 148.849 370.279 148.759 370.509 148.577C370.739 148.392 370.912 148.141 371.029 147.822C371.148 147.501 371.208 147.136 371.208 146.727C371.208 146.321 371.15 145.96 371.033 145.645C370.917 145.33 370.743 145.082 370.513 144.903C370.283 144.724 369.996 144.635 369.652 144.635C369.323 144.635 369.043 144.722 368.813 144.895C368.583 145.068 368.408 145.311 368.289 145.624C368.172 145.936 368.114 146.304 368.114 146.727ZM375.985 150.132C375.57 150.132 375.196 150.058 374.864 149.911C374.534 149.76 374.273 149.538 374.08 149.246C373.89 148.953 373.794 148.592 373.794 148.163C373.794 147.794 373.863 147.489 373.999 147.247C374.135 147.006 374.321 146.812 374.557 146.668C374.793 146.523 375.059 146.413 375.354 146.339C375.652 146.263 375.961 146.207 376.279 146.173C376.662 146.134 376.973 146.098 377.212 146.067C377.451 146.033 377.624 145.982 377.732 145.913C377.843 145.842 377.898 145.733 377.898 145.585V145.56C377.898 145.239 377.803 144.99 377.613 144.814C377.422 144.638 377.148 144.55 376.79 144.55C376.412 144.55 376.113 144.632 375.891 144.797C375.672 144.962 375.525 145.156 375.448 145.381L374.007 145.176C374.121 144.778 374.309 144.446 374.57 144.179C374.831 143.909 375.151 143.707 375.529 143.574C375.907 143.438 376.324 143.369 376.782 143.369C377.097 143.369 377.411 143.406 377.723 143.48C378.036 143.554 378.321 143.676 378.58 143.847C378.838 144.014 379.046 144.243 379.202 144.533C379.361 144.822 379.441 145.185 379.441 145.619V150H377.958V149.101H377.907C377.813 149.283 377.681 149.453 377.51 149.612C377.343 149.768 377.131 149.895 376.875 149.991C376.623 150.085 376.326 150.132 375.985 150.132ZM376.385 148.999C376.695 148.999 376.963 148.937 377.191 148.815C377.418 148.69 377.593 148.526 377.715 148.321C377.84 148.116 377.902 147.893 377.902 147.652V146.881C377.854 146.92 377.772 146.957 377.655 146.991C377.542 147.026 377.414 147.055 377.272 147.081C377.13 147.107 376.989 147.129 376.85 147.149C376.711 147.169 376.59 147.186 376.488 147.2C376.257 147.232 376.051 147.283 375.87 147.354C375.688 147.425 375.544 147.524 375.439 147.652C375.334 147.777 375.282 147.939 375.282 148.138C375.282 148.422 375.385 148.636 375.593 148.781C375.8 148.926 376.064 148.999 376.385 148.999ZM380.992 150V143.455H382.488V144.545H382.556C382.675 144.168 382.88 143.876 383.169 143.672C383.462 143.464 383.796 143.361 384.171 143.361C384.256 143.361 384.351 143.365 384.456 143.374C384.564 143.379 384.654 143.389 384.725 143.403V144.822C384.659 144.8 384.556 144.78 384.414 144.763C384.275 144.743 384.14 144.733 384.009 144.733C383.728 144.733 383.475 144.794 383.25 144.916C383.029 145.036 382.854 145.202 382.726 145.415C382.598 145.628 382.534 145.874 382.534 146.152V150H380.992ZM389.37 143.455V144.648H385.607V143.455H389.37ZM386.536 141.886H388.078V148.031C388.078 148.239 388.11 148.398 388.172 148.509C388.238 148.616 388.323 148.69 388.428 148.73C388.533 148.77 388.65 148.79 388.777 148.79C388.874 148.79 388.962 148.783 389.042 148.768C389.124 148.754 389.186 148.741 389.229 148.73L389.489 149.936C389.407 149.964 389.289 149.996 389.135 150.03C388.985 150.064 388.8 150.084 388.581 150.089C388.195 150.101 387.847 150.043 387.537 149.915C387.228 149.784 386.982 149.582 386.8 149.31C386.621 149.037 386.533 148.696 386.536 148.287V141.886ZM390.66 150V143.455H392.134V144.567H392.211C392.347 144.192 392.573 143.899 392.888 143.689C393.204 143.476 393.58 143.369 394.018 143.369C394.461 143.369 394.835 143.477 395.138 143.693C395.445 143.906 395.661 144.197 395.786 144.567H395.854C395.999 144.203 396.244 143.913 396.587 143.697C396.934 143.479 397.344 143.369 397.819 143.369C398.421 143.369 398.913 143.56 399.293 143.94C399.674 144.321 399.864 144.876 399.864 145.607V150H398.317V145.845C398.317 145.439 398.21 145.142 397.994 144.955C397.778 144.764 397.513 144.669 397.201 144.669C396.829 144.669 396.538 144.786 396.327 145.018C396.12 145.249 396.016 145.548 396.016 145.918V150H394.504V145.781C394.504 145.443 394.401 145.173 394.197 144.972C393.995 144.77 393.731 144.669 393.404 144.669C393.183 144.669 392.981 144.726 392.799 144.839C392.617 144.95 392.472 145.108 392.364 145.312C392.256 145.514 392.202 145.75 392.202 146.02V150H390.66ZM404.327 150.128C403.671 150.128 403.104 149.991 402.627 149.719C402.152 149.443 401.787 149.054 401.532 148.551C401.276 148.045 401.148 147.45 401.148 146.766C401.148 146.092 401.276 145.501 401.532 144.993C401.79 144.482 402.151 144.084 402.614 143.8C403.077 143.513 403.621 143.369 404.246 143.369C404.65 143.369 405.03 143.435 405.388 143.565C405.749 143.693 406.067 143.892 406.343 144.162C406.621 144.432 406.84 144.776 406.999 145.193C407.158 145.608 407.238 146.102 407.238 146.676V147.149H401.873V146.109H405.759C405.756 145.814 405.692 145.551 405.567 145.321C405.442 145.088 405.267 144.905 405.043 144.771C404.821 144.638 404.563 144.571 404.267 144.571C403.952 144.571 403.675 144.648 403.436 144.801C403.198 144.952 403.012 145.151 402.878 145.398C402.748 145.642 402.681 145.911 402.678 146.203V147.111C402.678 147.491 402.748 147.818 402.887 148.091C403.026 148.361 403.221 148.568 403.471 148.713C403.721 148.855 404.013 148.926 404.348 148.926C404.573 148.926 404.776 148.895 404.958 148.832C405.14 148.767 405.297 148.672 405.431 148.547C405.564 148.422 405.665 148.267 405.733 148.082L407.174 148.244C407.083 148.625 406.909 148.957 406.654 149.241C406.401 149.523 406.077 149.741 405.682 149.898C405.287 150.051 404.836 150.128 404.327 150.128ZM410.085 146.165V150H408.543V143.455H410.017V144.567H410.094C410.244 144.2 410.484 143.909 410.814 143.693C411.146 143.477 411.557 143.369 412.045 143.369C412.497 143.369 412.891 143.466 413.226 143.659C413.564 143.852 413.825 144.132 414.01 144.499C414.197 144.865 414.29 145.31 414.287 145.832V150H412.744V146.071C412.744 145.634 412.631 145.291 412.403 145.044C412.179 144.797 411.868 144.673 411.47 144.673C411.2 144.673 410.96 144.733 410.75 144.852C410.543 144.969 410.379 145.138 410.26 145.359C410.143 145.581 410.085 145.849 410.085 146.165ZM419.124 143.455V144.648H415.361V143.455H419.124ZM416.29 141.886H417.832V148.031C417.832 148.239 417.864 148.398 417.926 148.509C417.991 148.616 418.077 148.69 418.182 148.73C418.287 148.77 418.403 148.79 418.531 148.79C418.628 148.79 418.716 148.783 418.795 148.768C418.878 148.754 418.94 148.741 418.983 148.73L419.243 149.936C419.161 149.964 419.043 149.996 418.889 150.03C418.739 150.064 418.554 150.084 418.335 150.089C417.949 150.101 417.601 150.043 417.291 149.915C416.982 149.784 416.736 149.582 416.554 149.31C416.375 149.037 416.287 148.696 416.29 148.287V141.886Z" fill="black"/>
<path d="M493.982 150H492.294L495.366 141.273H497.318L500.395 150H498.707L496.376 143.062H496.308L493.982 150ZM494.037 146.578H498.639V147.848H494.037V146.578ZM504.132 150.128C503.479 150.128 502.918 149.984 502.449 149.697C501.983 149.411 501.624 149.014 501.371 148.509C501.121 148 500.996 147.415 500.996 146.753C500.996 146.088 501.124 145.501 501.379 144.993C501.635 144.482 501.996 144.084 502.462 143.8C502.93 143.513 503.484 143.369 504.124 143.369C504.655 143.369 505.125 143.467 505.534 143.663C505.946 143.857 506.274 144.131 506.518 144.486C506.763 144.838 506.902 145.25 506.936 145.722H505.462C505.402 145.406 505.26 145.143 505.036 144.933C504.814 144.72 504.517 144.614 504.145 144.614C503.83 144.614 503.553 144.699 503.314 144.869C503.075 145.037 502.889 145.278 502.756 145.594C502.625 145.909 502.56 146.287 502.56 146.727C502.56 147.173 502.625 147.557 502.756 147.878C502.886 148.196 503.07 148.442 503.305 148.615C503.544 148.786 503.824 148.871 504.145 148.871C504.372 148.871 504.575 148.828 504.754 148.743C504.936 148.655 505.088 148.528 505.21 148.364C505.332 148.199 505.416 147.999 505.462 147.763H506.936C506.899 148.226 506.763 148.636 506.527 148.994C506.291 149.349 505.97 149.628 505.564 149.83C505.158 150.028 504.68 150.128 504.132 150.128ZM511.471 143.455V144.648H507.708V143.455H511.471ZM508.637 141.886H510.18V148.031C510.18 148.239 510.211 148.398 510.274 148.509C510.339 148.616 510.424 148.69 510.529 148.73C510.635 148.77 510.751 148.79 510.879 148.79C510.975 148.79 511.064 148.783 511.143 148.768C511.225 148.754 511.288 148.741 511.331 148.73L511.591 149.936C511.508 149.964 511.39 149.996 511.237 150.03C511.086 150.064 510.902 150.084 510.683 150.089C510.297 150.101 509.949 150.043 509.639 149.915C509.329 149.784 509.083 149.582 508.902 149.31C508.723 149.037 508.635 148.696 508.637 148.287V141.886ZM512.761 150V143.455H514.304V150H512.761ZM513.537 142.526C513.293 142.526 513.082 142.445 512.906 142.283C512.73 142.118 512.642 141.92 512.642 141.69C512.642 141.457 512.73 141.26 512.906 141.098C513.082 140.933 513.293 140.851 513.537 140.851C513.784 140.851 513.994 140.933 514.168 141.098C514.344 141.26 514.432 141.457 514.432 141.69C514.432 141.92 514.344 142.118 514.168 142.283C513.994 142.445 513.784 142.526 513.537 142.526ZM518.745 150.128C518.106 150.128 517.552 149.987 517.083 149.706C516.615 149.425 516.251 149.031 515.993 148.526C515.737 148.02 515.609 147.429 515.609 146.753C515.609 146.077 515.737 145.484 515.993 144.976C516.251 144.467 516.615 144.072 517.083 143.791C517.552 143.51 518.106 143.369 518.745 143.369C519.385 143.369 519.939 143.51 520.407 143.791C520.876 144.072 521.238 144.467 521.494 144.976C521.752 145.484 521.882 146.077 521.882 146.753C521.882 147.429 521.752 148.02 521.494 148.526C521.238 149.031 520.876 149.425 520.407 149.706C519.939 149.987 519.385 150.128 518.745 150.128ZM518.754 148.892C519.1 148.892 519.39 148.797 519.623 148.607C519.856 148.413 520.029 148.155 520.143 147.831C520.26 147.507 520.318 147.146 520.318 146.749C520.318 146.348 520.26 145.986 520.143 145.662C520.029 145.335 519.856 145.075 519.623 144.882C519.39 144.689 519.1 144.592 518.754 144.592C518.399 144.592 518.103 144.689 517.868 144.882C517.635 145.075 517.46 145.335 517.343 145.662C517.23 145.986 517.173 146.348 517.173 146.749C517.173 147.146 517.23 147.507 517.343 147.831C517.46 148.155 517.635 148.413 517.868 148.607C518.103 148.797 518.399 148.892 518.754 148.892ZM524.734 146.165V150H523.191V143.455H524.665V144.567H524.742C524.893 144.2 525.133 143.909 525.462 143.693C525.795 143.477 526.205 143.369 526.694 143.369C527.146 143.369 527.539 143.466 527.874 143.659C528.212 143.852 528.474 144.132 528.658 144.499C528.846 144.865 528.938 145.31 528.935 145.832V150H527.393V146.071C527.393 145.634 527.279 145.291 527.052 145.044C526.827 144.797 526.516 144.673 526.119 144.673C525.849 144.673 525.609 144.733 525.398 144.852C525.191 144.969 525.028 145.138 524.908 145.359C524.792 145.581 524.734 145.849 524.734 146.165ZM535.677 145.185L534.271 145.338C534.231 145.196 534.161 145.062 534.062 144.938C533.965 144.812 533.835 144.712 533.67 144.635C533.505 144.558 533.303 144.52 533.065 144.52C532.744 144.52 532.474 144.589 532.255 144.729C532.039 144.868 531.933 145.048 531.935 145.27C531.933 145.46 532.002 145.615 532.144 145.734C532.289 145.854 532.528 145.952 532.86 146.028L533.977 146.267C534.596 146.401 535.056 146.612 535.357 146.902C535.661 147.192 535.815 147.571 535.817 148.04C535.815 148.452 535.694 148.815 535.455 149.131C535.219 149.443 534.891 149.687 534.471 149.864C534.05 150.04 533.567 150.128 533.022 150.128C532.221 150.128 531.576 149.96 531.087 149.625C530.599 149.287 530.308 148.817 530.214 148.214L531.718 148.07C531.786 148.365 531.931 148.588 532.153 148.739C532.374 148.889 532.663 148.964 533.018 148.964C533.384 148.964 533.678 148.889 533.9 148.739C534.124 148.588 534.237 148.402 534.237 148.18C534.237 147.993 534.164 147.838 534.019 147.716C533.877 147.594 533.656 147.5 533.354 147.435L532.238 147.2C531.61 147.07 531.146 146.849 530.844 146.54C530.543 146.227 530.394 145.832 530.397 145.355C530.394 144.952 530.504 144.602 530.725 144.307C530.95 144.009 531.261 143.778 531.658 143.616C532.059 143.452 532.521 143.369 533.043 143.369C533.81 143.369 534.414 143.533 534.854 143.859C535.298 144.186 535.572 144.628 535.677 145.185Z" fill="black"/>
<line x1="57" y1="163.5" x2="621" y2="163.5" stroke="#DDD6D6"/>
<rect x="106" y="176" width="45" height="5" fill="#D9D9D9"/>
<rect x="208" y="176" width="119" height="5" fill="#D9D9D9"/>
<rect x="349" y="173" width="123" height="5" fill="#D9D9D9"/>
<rect x="490" y="173" width="21" height="5" fill="#EB7979"/>
<rect x="521" y="173" width="21" height="5" fill="#A4EBC0"/>
<rect x="106" y="211" width="45" height="5" fill="#D9D9D9"/>
<rect x="208" y="211" width="119" height="5" fill="#D9D9D9"/>
<rect x="349" y="209" width="123" height="5" fill="#D9D9D9"/>
<rect x="490" y="209" width="21" height="5" fill="#EB7979"/>
<rect x="522" y="209" width="21" height="5" fill="#A4EBC0"/>
<rect x="106" y="246" width="45" height="5" fill="#D9D9D9"/>
<rect x="208" y="246" width="119" height="5" fill="#D9D9D9"/>
<rect x="349" y="245" width="123" height="5" fill="#D9D9D9"/>
<rect x="490" y="245" width="21" height="5" fill="#EB7979"/>
<rect x="522" y="245" width="21" height="5" fill="#A4EBC0"/>
<rect x="106" y="281" width="45" height="5" fill="#D9D9D9"/>
<rect x="208" y="281" width="119" height="5" fill="#D9D9D9"/>
<rect x="349" y="281" width="123" height="5" fill="#D9D9D9"/>
<rect x="490" y="281" width="21" height="5" fill="#EB7979"/>
<rect x="522" y="281" width="21" height="5" fill="#A4EBC0"/>
</svg>
