<svg width="32" height="32" viewBox="0 0 32 32" fill="none" xmlns="http://www.w3.org/2000/svg">
<g clip-path="url(#clip0_3274_7682)">
<path d="M19.782 3H8.90202C8.20384 3 7.56384 3.52892 7.56384 4.16363V9.34707L19.782 18.0214L32.0001 15.6941V9.34707L19.782 3Z" fill="#21A366"/>
<path d="M30.6614 3H19.7814V9.34708H31.9996V4.21652C31.9996 3.58182 31.4177 3 30.6614 3Z" fill="#33C481"/>
<path d="M7.56384 9.34708V27.1718C7.56384 27.8065 8.14566 28.3883 8.84384 28.3883H30.6619C31.3601 28.3883 32.0001 27.8594 32.0001 27.2247V22.0412L7.56384 9.34708Z" fill="#185C37"/>
<path d="M7.56384 9.34708H19.782V15.6942H7.56384V9.34708Z" fill="#107C41"/>
<path opacity="0.1" d="M16.8729 9.50574V23.628C16.7565 24.2098 16.1747 24.6329 15.5347 24.6329H7.56384V8.28922H15.5347C16.2329 8.28922 16.8729 8.81814 16.8729 9.50574Z" fill="black"/>
<path opacity="0.1" d="M17.4547 9.50576V22.3586C17.4547 23.3106 16.582 24.104 15.5347 24.104H7.56384V7.76031H15.5347C16.582 7.76031 17.4547 8.5537 17.4547 9.50576Z" fill="black"/>
<path opacity="0.1" d="M16.8729 9.50574V22.3586C16.8729 22.9933 16.2911 23.5751 15.5929 23.5751H7.56384V8.28922H15.5347C16.2329 8.28922 16.8729 8.81814 16.8729 9.50574Z" fill="black"/>
<path opacity="0.1" d="M16.2911 9.50574V22.3586C16.2911 22.9933 15.7093 23.5751 15.0111 23.5751H7.56384V8.28922H14.9529C15.6511 8.28922 16.2911 8.81814 16.2911 9.50574Z" fill="black"/>
<path d="M1.33818 8.28922H14.8945C15.5926 8.28922 16.2326 8.81814 16.2326 9.45285V21.8296C16.2326 22.4644 15.6508 23.0462 14.9527 23.0462H1.33818C0.639997 23.0991 0.0581815 22.623 0 22.0412V9.50574C0 8.87103 0.581815 8.28922 1.33818 8.28922Z" fill="#107C41"/>
<path d="M4.18903 19.714L7.03992 15.6941L4.42175 11.6743H6.51629L7.97083 14.2132C8.02901 14.3718 8.14537 14.5834 8.26173 14.7421C8.3781 14.5305 8.43628 14.3718 8.55264 14.1603L10.0654 11.6214H11.9854L9.309 15.6412L12.0435 19.6611H10.0072L8.3781 16.8578C8.31991 16.752 8.26173 16.5933 8.20355 16.4875C8.14537 16.5933 8.08719 16.752 8.02901 16.8578L6.34174 19.6611L4.18903 19.714V19.714Z" fill="white"/>
<path d="M19.7814 15.6941H31.9996V22.0412H19.7814V15.6941Z" fill="#107C41"/>
</g>
<defs>
<clipPath id="clip0_3274_7682">
<rect width="32" height="32" fill="white"/>
</clipPath>
</defs>
</svg>
