<svg width="32" height="32" viewBox="0 0 32 32" fill="none" xmlns="http://www.w3.org/2000/svg">
<g clip-path="url(#clip0_3274_7366)">
<path d="M6.74593 20.2291C6.74593 22.089 5.24393 23.5922 3.38552 23.5922C1.52712 23.5922 0.025116 22.089 0.025116 20.2291C0.025116 18.3692 1.52712 16.866 3.38552 16.866H6.74593V20.2291Z" fill="#E01E5A"/>
<path d="M8.42632 20.2292C8.42632 18.3693 9.92831 16.8661 11.7867 16.8661C13.6451 16.8661 15.1471 18.3693 15.1471 20.2292V28.6369C15.1471 30.4968 13.6451 32 11.7867 32C9.92831 32 8.42632 30.4968 8.42632 28.6369V20.2292Z" fill="#E01E5A"/>
<path d="M11.7868 6.72586C9.92834 6.72586 8.42635 5.22266 8.42635 3.36278C8.42635 1.50289 9.92834 -0.000305176 11.7868 -0.000305176C13.6452 -0.000305176 15.1472 1.50289 15.1472 3.36278V6.72586H11.7868Z" fill="#36C5F0"/>
<path d="M11.7867 8.43274C13.6451 8.43274 15.1471 9.93594 15.1471 11.7958C15.1471 13.6557 13.6451 15.1589 11.7867 15.1589H3.36027C1.50186 15.1589 -0.000137329 13.6557 -0.000137329 11.7958C-0.000137329 9.93594 1.50186 8.43274 3.36027 8.43274H11.7867Z" fill="#36C5F0"/>
<path d="M25.2538 11.7958C25.2538 9.93587 26.7558 8.43268 28.6142 8.43268C30.4726 8.43268 31.9746 9.93587 31.9746 11.7958C31.9746 13.6556 30.4726 15.1588 28.6142 15.1588H25.2538V11.7958Z" fill="#2EB67D"/>
<path d="M23.5736 11.796C23.5736 13.6558 22.0716 15.159 20.2132 15.159C18.3548 15.159 16.8528 13.6558 16.8528 11.796V3.36278C16.8528 1.50289 18.3548 -0.000305176 20.2132 -0.000305176C22.0716 -0.000305176 23.5736 1.50289 23.5736 3.36278V11.796Z" fill="#2EB67D"/>
<path d="M20.2133 25.2735C22.0717 25.2735 23.5737 26.7767 23.5737 28.6366C23.5737 30.4965 22.0717 31.9997 20.2133 31.9997C18.3548 31.9997 16.8528 30.4965 16.8528 28.6366V25.2735H20.2133Z" fill="#ECB22E"/>
<path d="M20.2132 23.5922C18.3548 23.5922 16.8528 22.089 16.8528 20.2291C16.8528 18.3692 18.3548 16.866 20.2132 16.866H28.6397C30.4981 16.866 32.0001 18.3692 32.0001 20.2291C32.0001 22.089 30.4981 23.5922 28.6397 23.5922H20.2132Z" fill="#ECB22E"/>
</g>
<defs>
<clipPath id="clip0_3274_7366">
<rect width="32" height="32" fill="white"/>
</clipPath>
</defs>
</svg>
