<svg width="32" height="32" viewBox="0 0 32 32" fill="none" xmlns="http://www.w3.org/2000/svg">
<g clip-path="url(#clip0_3274_7847)">
<path fill-rule="evenodd" clip-rule="evenodd" d="M21.7646 15.0696H17.2649V10.2208H15.4959V15.0696H10.9957V16.7925H15.4959V21.6403H17.2649V16.7925H21.7646V15.0696Z" fill="#E7762C"/>
<path fill-rule="evenodd" clip-rule="evenodd" d="M12.7178 22.9854H8.68561V18.6446H7.15984V22.9854H3.12878V24.3089H7.15984V28.6508H8.68561V24.3089H12.7178V22.9854Z" fill="#C72036"/>
<path fill-rule="evenodd" clip-rule="evenodd" d="M29.6321 7.4573H25.601V3.09551H24.0736V7.4573H20.0426V8.77972H24.0736V13.1011H25.601V8.77972H29.6321V7.4573Z" fill="#5A879A"/>
<path fill-rule="evenodd" clip-rule="evenodd" d="M15.7546 24.7754V27.803H13.0201V28.972H15.7546V32H17.0577V28.972H19.7932V27.803H17.0577V24.7754H15.7546Z" fill="#5B6591"/>
<path fill-rule="evenodd" clip-rule="evenodd" d="M12.7178 7.45625H8.63837V3.09501H7.20817V7.45625H3.12878V8.74046H7.20817V13.1006H8.63837V8.74046H12.7178V7.45625Z" fill="#EA9128"/>
<path fill-rule="evenodd" clip-rule="evenodd" d="M28.6908 12.3195V15.3465H25.9559V16.5161H28.6908V19.5436H29.9945V16.5161H32.7295V15.3465H29.9945V12.3195H28.6908Z" fill="#5B6591"/>
<path fill-rule="evenodd" clip-rule="evenodd" d="M29.6321 22.9854H25.601V18.6446H24.0736V22.9854H20.0426V24.3089H24.0736V28.6508H25.601V24.3089H29.6321V22.9854Z" fill="#1F447E"/>
<path fill-rule="evenodd" clip-rule="evenodd" d="M15.9194 0V2.97101H13.2137V3.86985H15.9194V6.84032H16.8924V3.86985H19.5986V2.97101H16.8924V0H15.9194Z" fill="#7098A5"/>
<path fill-rule="evenodd" clip-rule="evenodd" d="M2.71597 12.5504V15.4627H0V16.3992L2.71597 16.3826V19.3121H3.67053V16.3772L6.3865 16.361V15.4627H3.67053V12.5504H2.71597Z" fill="#7098A5"/>
</g>
<defs>
<clipPath id="clip0_3274_7847">
<rect width="32" height="32" fill="white"/>
</clipPath>
</defs>
</svg>
