<svg width="32" height="32" viewBox="0 0 32 32" fill="none" xmlns="http://www.w3.org/2000/svg">
<g clip-path="url(#clip0_3274_7492)">
<path d="M16 32C24.8365 32 32 24.8365 32 16C32 7.16347 24.8365 -1.35605e-07 16 -1.35605e-07C7.16346 -1.35605e-07 0 7.16347 0 16C0 24.8365 7.16346 32 16 32V32Z" fill="#4A8CFF"/>
<path d="M5.56145 21.0128V13.4938C5.56812 11.7935 6.95687 10.425 8.6505 10.4319H19.6107C19.9223 10.4319 20.173 10.6826 20.173 10.9875V18.5066C20.1663 20.2069 18.7775 21.5753 17.0842 21.5684H6.12394C5.81239 21.5684 5.56171 21.3177 5.56171 21.0128H5.56145ZM20.8705 18.0797L25.3956 21.3852C25.7886 21.7104 26.0932 21.6292 26.0932 21.0398V10.9603C26.0932 10.2896 25.7205 10.3708 25.3956 10.6148L20.8705 13.9137V18.0797V18.0797Z" fill="white"/>
</g>
<defs>
<clipPath id="clip0_3274_7492">
<rect width="32" height="32" fill="white"/>
</clipPath>
</defs>
</svg>
